<?xml version="1.0" standalone="no"?>
<!DOCTYPE svg PUBLIC "-//W3C//DTD SVG 20010904//EN"
 "http://www.w3.org/TR/2001/REC-SVG-20010904/DTD/svg10.dtd">
<svg version="1.0" xmlns="http://www.w3.org/2000/svg"
 width="1712.502683pt" height="1712.452473pt" viewBox="0 0 1712.502683 1712.452473"
 preserveAspectRatio="xMidYMid meet">
<metadata>
Created by potrace 1.16, written by Peter Selinger 2001-2019
</metadata>
<g transform="translate(0.002683,1712.952473) scale(0.100000,-0.100000)"
fill="#000000" stroke="none">
<path d="M715 17113 c-181 -38 -314 -112 -450 -248 -139 -139 -211 -271 -249
-457 -15 -70 -16 -787 -16 -7837 0 -8284 -3 -7813 45 -7956 47 -143 153 -299
266 -394 118 -99 221 -151 382 -194 l82 -22 7790 0 7790 0 84 23 c177 48 316
129 432 249 115 119 184 243 231 414 l23 84 0 7790 0 7790 -22 82 c-43 161
-95 264 -194 382 -95 113 -251 219 -394 266 -143 48 329 45 -7963 44 -6856 -1
-7775 -2 -7837 -16z m5018 -5498 c343 -52 766 -234 1063 -460 121 -91 103 -90
186 -8 156 153 362 270 575 324 103 27 139 31 278 34 176 4 266 -8 400 -51
582 -190 890 -831 744 -1548 -76 -376 -282 -790 -574 -1156 -112 -140 -265
-302 -380 -400 -47 -41 -85 -81 -85 -90 0 -16 153 -127 470 -342 138 -93 362
-236 384 -244 10 -4 9 7 -5 49 -49 145 -64 398 -34 568 96 550 525 945 1105
1018 277 34 492 15 724 -66 124 -43 188 -75 302 -152 268 -179 468 -475 559
-828 41 -158 53 -278 51 -483 -3 -198 -24 -330 -81 -519 -168 -561 -543 -1144
-1056 -1646 -550 -537 -1121 -852 -1674 -920 -98 -12 -350 -7 -470 10 -280 39
-560 135 -674 231 -33 27 -41 61 -17 70 8 3 63 -10 123 -29 431 -140 822 -171
1187 -96 302 63 624 230 964 502 175 139 520 486 668 672 388 486 621 945 726
1425 20 92 23 133 22 325 0 244 -14 337 -75 512 -130 367 -404 628 -757 720
-130 33 -362 42 -504 19 -248 -41 -439 -136 -590 -294 -180 -189 -271 -422
-270 -692 1 -153 22 -245 89 -380 39 -80 60 -109 137 -185 103 -103 212 -167
352 -207 104 -30 333 -33 434 -5 202 54 340 182 419 387 76 196 93 351 52 465
-45 128 -157 256 -314 358 -93 61 -99 84 -22 78 189 -13 446 -149 554 -293
108 -146 155 -396 116 -621 -58 -335 -254 -562 -578 -670 -142 -48 -236 -61
-437 -62 -177 0 -189 1 -270 28 -305 103 -912 461 -1658 980 -100 70 -184 127
-187 127 -2 0 -58 -36 -123 -80 -298 -200 -569 -292 -862 -292 -150 0 -246 19
-340 67 -150 76 -233 232 -215 407 35 361 349 601 750 574 219 -15 435 -99
693 -271 l102 -68 57 44 c90 68 311 292 403 409 278 350 462 729 535 1105 24
123 30 360 12 480 -87 561 -499 881 -1019 790 -170 -29 -326 -94 -437 -180
-101 -77 -111 -103 -54 -137 101 -60 246 -233 313 -373 64 -133 85 -228 85
-380 0 -117 -3 -139 -29 -219 -77 -236 -251 -366 -485 -366 -105 1 -156 12
-237 52 -324 161 -405 644 -189 1116 30 64 36 88 28 100 -14 23 -473 257 -650
332 -302 128 -542 187 -903 221 -121 11 -549 7 -646 -7 -33 -4 -43 -2 -48 11
-5 13 11 24 71 52 185 85 458 153 698 172 141 12 392 5 518 -14z"/>
<path d="M6963 10725 c-27 -19 -89 -164 -113 -267 -53 -230 -26 -425 76 -537
49 -55 105 -83 163 -83 60 1 98 16 139 55 66 63 95 148 93 277 -1 173 -63 311
-206 456 -105 107 -123 119 -152 99z"/>
<path d="M6723 8465 c-109 -30 -189 -88 -240 -173 -24 -40 -28 -58 -28 -123 0
-68 3 -79 29 -113 55 -73 118 -97 258 -97 165 0 331 43 513 133 121 59 209
117 213 140 7 37 -230 165 -396 214 -110 33 -271 41 -349 19z"/>
</g>
</svg>
